<mxfile host="65bd71144e">
    <diagram name="Page-1" id="gpGDwGu863wAZ054NChd">
        <mxGraphModel dx="778" dy="411" grid="1" gridSize="10" guides="1" tooltips="1" connect="1" arrows="1" fold="1" page="1" pageScale="1" pageWidth="1100" pageHeight="1700" math="0" shadow="0">
            <root>
                <mxCell id="0"/>
                <mxCell id="1" parent="0"/>
                <mxCell id="3Syt7cLB1HclfKOrYkWT-1" value="" style="rounded=1;whiteSpace=wrap;html=1;" parent="1" vertex="1">
                    <mxGeometry x="60" y="159" width="80" height="40" as="geometry"/>
                </mxCell>
                <mxCell id="3Syt7cLB1HclfKOrYkWT-2" value="User" style="text;strokeColor=none;align=center;fillColor=none;html=1;verticalAlign=middle;whiteSpace=wrap;rounded=0;" parent="1" vertex="1">
                    <mxGeometry x="70" y="164" width="60" height="30" as="geometry"/>
                </mxCell>
                <mxCell id="3Syt7cLB1HclfKOrYkWT-3" value="" style="endArrow=classic;html=1;rounded=0;" parent="1" edge="1">
                    <mxGeometry width="50" height="50" relative="1" as="geometry">
                        <mxPoint x="160" y="180" as="sourcePoint"/>
                        <mxPoint x="220" y="180" as="targetPoint"/>
                    </mxGeometry>
                </mxCell>
                <mxCell id="3Syt7cLB1HclfKOrYkWT-4" value="Search" style="text;html=1;strokeColor=none;fillColor=none;align=center;verticalAlign=middle;whiteSpace=wrap;rounded=0;" parent="1" vertex="1">
                    <mxGeometry x="170" y="150" width="40" height="20" as="geometry"/>
                </mxCell>
                <mxCell id="3Syt7cLB1HclfKOrYkWT-5" value="" style="rounded=1;whiteSpace=wrap;html=1;" parent="1" vertex="1">
                    <mxGeometry x="240" y="150" width="110" height="59" as="geometry"/>
                </mxCell>
                <mxCell id="3Syt7cLB1HclfKOrYkWT-6" value="Checking the number of letters" style="text;html=1;strokeColor=none;fillColor=none;align=center;verticalAlign=middle;whiteSpace=wrap;rounded=0;" parent="1" vertex="1">
                    <mxGeometry x="245" y="149" width="100" height="60" as="geometry"/>
                </mxCell>
                <mxCell id="3Syt7cLB1HclfKOrYkWT-7" value="" style="endArrow=classic;html=1;rounded=0;" parent="1" edge="1">
                    <mxGeometry width="50" height="50" relative="1" as="geometry">
                        <mxPoint x="370" y="180" as="sourcePoint"/>
                        <mxPoint x="430" y="180" as="targetPoint"/>
                    </mxGeometry>
                </mxCell>
                <mxCell id="3Syt7cLB1HclfKOrYkWT-8" value="more than 3" style="text;html=1;strokeColor=none;fillColor=none;align=center;verticalAlign=middle;whiteSpace=wrap;rounded=0;" parent="1" vertex="1">
                    <mxGeometry x="375" y="145" width="50" height="30" as="geometry"/>
                </mxCell>
                <mxCell id="3Syt7cLB1HclfKOrYkWT-10" value="less than 3" style="text;html=1;strokeColor=none;fillColor=none;align=center;verticalAlign=middle;whiteSpace=wrap;rounded=0;" parent="1" vertex="1">
                    <mxGeometry x="310" y="330" width="50" height="25" as="geometry"/>
                </mxCell>
                <mxCell id="3Syt7cLB1HclfKOrYkWT-11" value="" style="rounded=1;whiteSpace=wrap;html=1;" parent="1" vertex="1">
                    <mxGeometry x="450" y="149" width="120" height="60" as="geometry"/>
                </mxCell>
                <mxCell id="3Syt7cLB1HclfKOrYkWT-14" value="Get word and validate it" style="text;html=1;strokeColor=none;fillColor=none;align=center;verticalAlign=middle;whiteSpace=wrap;rounded=0;" parent="1" vertex="1">
                    <mxGeometry x="460" y="164" width="100" height="30" as="geometry"/>
                </mxCell>
                <mxCell id="3Syt7cLB1HclfKOrYkWT-15" value="" style="endArrow=classic;html=1;rounded=0;" parent="1" edge="1">
                    <mxGeometry width="50" height="50" relative="1" as="geometry">
                        <mxPoint x="509.5" y="220" as="sourcePoint"/>
                        <mxPoint x="509.5" y="270" as="targetPoint"/>
                    </mxGeometry>
                </mxCell>
                <mxCell id="3Syt7cLB1HclfKOrYkWT-16" value="" style="rounded=1;whiteSpace=wrap;html=1;" parent="1" vertex="1">
                    <mxGeometry x="455" y="275" width="110" height="60" as="geometry"/>
                </mxCell>
                <mxCell id="3Syt7cLB1HclfKOrYkWT-18" value="Show error message" style="text;html=1;strokeColor=none;fillColor=none;align=center;verticalAlign=middle;whiteSpace=wrap;rounded=0;" parent="1" vertex="1">
                    <mxGeometry x="460" y="280" width="100" height="50" as="geometry"/>
                </mxCell>
                <mxCell id="3Syt7cLB1HclfKOrYkWT-20" value="invalid" style="text;html=1;strokeColor=none;fillColor=none;align=center;verticalAlign=middle;whiteSpace=wrap;rounded=0;" parent="1" vertex="1">
                    <mxGeometry x="456" y="224" width="60" height="30" as="geometry"/>
                </mxCell>
                <mxCell id="3Syt7cLB1HclfKOrYkWT-21" value="" style="endArrow=classic;html=1;rounded=0;" parent="1" edge="1">
                    <mxGeometry width="50" height="50" relative="1" as="geometry">
                        <mxPoint x="590" y="175" as="sourcePoint"/>
                        <mxPoint x="660" y="175" as="targetPoint"/>
                    </mxGeometry>
                </mxCell>
                <mxCell id="3Syt7cLB1HclfKOrYkWT-23" value="valid" style="text;html=1;strokeColor=none;fillColor=none;align=center;verticalAlign=middle;whiteSpace=wrap;rounded=0;" parent="1" vertex="1">
                    <mxGeometry x="590" y="145" width="60" height="30" as="geometry"/>
                </mxCell>
                <mxCell id="3Syt7cLB1HclfKOrYkWT-233" value="" style="rounded=1;whiteSpace=wrap;html=1;" parent="1" vertex="1">
                    <mxGeometry x="880" y="150" width="120" height="60" as="geometry"/>
                </mxCell>
                <mxCell id="3Syt7cLB1HclfKOrYkWT-234" value="Send request to api" style="text;html=1;strokeColor=none;fillColor=none;align=center;verticalAlign=middle;whiteSpace=wrap;rounded=0;" parent="1" vertex="1">
                    <mxGeometry x="902.5" y="160" width="75" height="40" as="geometry"/>
                </mxCell>
                <mxCell id="3Syt7cLB1HclfKOrYkWT-237" value="" style="endArrow=classic;html=1;rounded=0;" parent="1" edge="1">
                    <mxGeometry width="50" height="50" relative="1" as="geometry">
                        <mxPoint x="940" y="220" as="sourcePoint"/>
                        <mxPoint x="940" y="270" as="targetPoint"/>
                    </mxGeometry>
                </mxCell>
                <mxCell id="3Syt7cLB1HclfKOrYkWT-238" value="" style="rounded=1;whiteSpace=wrap;html=1;" parent="1" vertex="1">
                    <mxGeometry x="885" y="275" width="110" height="60" as="geometry"/>
                </mxCell>
                <mxCell id="3Syt7cLB1HclfKOrYkWT-239" value="arrange result items into nice form (put id in tag)" style="text;html=1;strokeColor=none;fillColor=none;align=center;verticalAlign=middle;whiteSpace=wrap;rounded=0;" parent="1" vertex="1">
                    <mxGeometry x="890" y="280" width="100" height="50" as="geometry"/>
                </mxCell>
                <mxCell id="3Syt7cLB1HclfKOrYkWT-240" value="return response" style="text;html=1;strokeColor=none;fillColor=none;align=center;verticalAlign=middle;whiteSpace=wrap;rounded=0;" parent="1" vertex="1">
                    <mxGeometry x="940" y="230" width="60" height="30" as="geometry"/>
                </mxCell>
                <mxCell id="3Syt7cLB1HclfKOrYkWT-241" value="" style="rounded=1;whiteSpace=wrap;html=1;" parent="1" vertex="1">
                    <mxGeometry x="690" y="149" width="120" height="60" as="geometry"/>
                </mxCell>
                <mxCell id="3Syt7cLB1HclfKOrYkWT-242" value="checking for select genre box" style="text;html=1;strokeColor=none;fillColor=none;align=center;verticalAlign=middle;whiteSpace=wrap;rounded=0;" parent="1" vertex="1">
                    <mxGeometry x="710" y="159.5" width="80" height="40" as="geometry"/>
                </mxCell>
                <mxCell id="3Syt7cLB1HclfKOrYkWT-243" value="" style="endArrow=classic;html=1;rounded=0;exitX=0;exitY=1;exitDx=0;exitDy=0;entryX=1.084;entryY=-0.112;entryDx=0;entryDy=0;entryPerimeter=0;" parent="1" target="3Syt7cLB1HclfKOrYkWT-18" edge="1">
                    <mxGeometry width="50" height="50" relative="1" as="geometry">
                        <mxPoint x="880" y="207" as="sourcePoint"/>
                        <mxPoint x="580" y="270" as="targetPoint"/>
                    </mxGeometry>
                </mxCell>
                <mxCell id="3Syt7cLB1HclfKOrYkWT-244" value="error or time expired" style="text;html=1;strokeColor=none;fillColor=none;align=center;verticalAlign=middle;whiteSpace=wrap;rounded=0;" parent="1" vertex="1">
                    <mxGeometry x="630" y="260" width="80" height="30" as="geometry"/>
                </mxCell>
                <mxCell id="3Syt7cLB1HclfKOrYkWT-245" value="" style="endArrow=classic;html=1;rounded=0;shape=flexArrow;" parent="1" edge="1">
                    <mxGeometry width="50" height="50" relative="1" as="geometry">
                        <mxPoint x="820" y="180" as="sourcePoint"/>
                        <mxPoint x="870" y="179.5" as="targetPoint"/>
                    </mxGeometry>
                </mxCell>
                <mxCell id="3Syt7cLB1HclfKOrYkWT-246" value="" style="endArrow=classic;html=1;rounded=0;" parent="1" edge="1">
                    <mxGeometry width="50" height="50" relative="1" as="geometry">
                        <mxPoint x="940" y="350" as="sourcePoint"/>
                        <mxPoint x="940" y="400" as="targetPoint"/>
                    </mxGeometry>
                </mxCell>
                <mxCell id="3Syt7cLB1HclfKOrYkWT-247" value="user clicked" style="text;html=1;strokeColor=none;fillColor=none;align=center;verticalAlign=middle;whiteSpace=wrap;rounded=0;" parent="1" vertex="1">
                    <mxGeometry x="940" y="360" width="60" height="30" as="geometry"/>
                </mxCell>
                <mxCell id="3Syt7cLB1HclfKOrYkWT-248" value="" style="rounded=1;whiteSpace=wrap;html=1;" parent="1" vertex="1">
                    <mxGeometry x="690" y="420" width="120" height="60" as="geometry"/>
                </mxCell>
                <mxCell id="3Syt7cLB1HclfKOrYkWT-249" value="Send request with id to api" style="text;html=1;strokeColor=none;fillColor=none;align=center;verticalAlign=middle;whiteSpace=wrap;rounded=0;" parent="1" vertex="1">
                    <mxGeometry x="712.5" y="430" width="75" height="40" as="geometry"/>
                </mxCell>
                <mxCell id="3Syt7cLB1HclfKOrYkWT-250" value="" style="endArrow=classic;html=1;rounded=0;exitX=0;exitY=0;exitDx=0;exitDy=0;entryX=1.076;entryY=1.136;entryDx=0;entryDy=0;entryPerimeter=0;" parent="1" source="3Syt7cLB1HclfKOrYkWT-248" target="3Syt7cLB1HclfKOrYkWT-18" edge="1">
                    <mxGeometry width="50" height="50" relative="1" as="geometry">
                        <mxPoint x="850" y="430" as="sourcePoint"/>
                        <mxPoint x="570" y="350" as="targetPoint"/>
                    </mxGeometry>
                </mxCell>
                <mxCell id="3Syt7cLB1HclfKOrYkWT-251" value="error or time expired" style="text;html=1;strokeColor=none;fillColor=none;align=center;verticalAlign=middle;whiteSpace=wrap;rounded=0;" parent="1" vertex="1">
                    <mxGeometry x="630" y="355" width="80" height="30" as="geometry"/>
                </mxCell>
                <mxCell id="3Syt7cLB1HclfKOrYkWT-253" value="" style="rounded=1;whiteSpace=wrap;html=1;" parent="1" vertex="1">
                    <mxGeometry x="880" y="420" width="120" height="60" as="geometry"/>
                </mxCell>
                <mxCell id="3Syt7cLB1HclfKOrYkWT-254" value="close result window" style="text;html=1;strokeColor=none;fillColor=none;align=center;verticalAlign=middle;whiteSpace=wrap;rounded=0;" parent="1" vertex="1">
                    <mxGeometry x="902.5" y="430" width="75" height="40" as="geometry"/>
                </mxCell>
                <mxCell id="3Syt7cLB1HclfKOrYkWT-255" value="" style="endArrow=classic;html=1;rounded=0;shape=flexArrow;" parent="1" edge="1">
                    <mxGeometry width="50" height="50" relative="1" as="geometry">
                        <mxPoint x="860" y="450" as="sourcePoint"/>
                        <mxPoint x="820" y="450" as="targetPoint"/>
                    </mxGeometry>
                </mxCell>
                <mxCell id="3Syt7cLB1HclfKOrYkWT-256" value="" style="endArrow=classic;html=1;rounded=0;" parent="1" edge="1">
                    <mxGeometry width="50" height="50" relative="1" as="geometry">
                        <mxPoint x="655" y="450" as="sourcePoint"/>
                        <mxPoint x="585" y="450" as="targetPoint"/>
                    </mxGeometry>
                </mxCell>
                <mxCell id="3Syt7cLB1HclfKOrYkWT-257" value="return response" style="text;html=1;strokeColor=none;fillColor=none;align=center;verticalAlign=middle;whiteSpace=wrap;rounded=0;" parent="1" vertex="1">
                    <mxGeometry x="595" y="410" width="60" height="30" as="geometry"/>
                </mxCell>
                <mxCell id="3Syt7cLB1HclfKOrYkWT-258" value="" style="rounded=1;whiteSpace=wrap;html=1;" parent="1" vertex="1">
                    <mxGeometry x="450" y="420" width="120" height="60" as="geometry"/>
                </mxCell>
                <mxCell id="3Syt7cLB1HclfKOrYkWT-259" value="put result into nice form and also arrange related results" style="text;html=1;strokeColor=none;fillColor=none;align=center;verticalAlign=middle;whiteSpace=wrap;rounded=0;" parent="1" vertex="1">
                    <mxGeometry x="455" y="427.5" width="110" height="45" as="geometry"/>
                </mxCell>
                <mxCell id="3Syt7cLB1HclfKOrYkWT-260" value="" style="endArrow=classic;html=1;rounded=0;exitX=0;exitY=0;exitDx=0;exitDy=0;entryX=0.13;entryY=1.093;entryDx=0;entryDy=0;entryPerimeter=0;" parent="1" source="3Syt7cLB1HclfKOrYkWT-258" target="3Syt7cLB1HclfKOrYkWT-6" edge="1">
                    <mxGeometry width="50" height="50" relative="1" as="geometry">
                        <mxPoint x="440" y="413" as="sourcePoint"/>
                        <mxPoint x="270" y="220" as="targetPoint"/>
                        <Array as="points">
                            <mxPoint x="258" y="420"/>
                        </Array>
                    </mxGeometry>
                </mxCell>
                <mxCell id="3Syt7cLB1HclfKOrYkWT-261" value="search" style="text;html=1;strokeColor=none;fillColor=none;align=center;verticalAlign=middle;whiteSpace=wrap;rounded=0;" parent="1" vertex="1">
                    <mxGeometry x="185" y="305" width="60" height="30" as="geometry"/>
                </mxCell>
                <mxCell id="3Syt7cLB1HclfKOrYkWT-264" value="select one of the related results" style="text;html=1;strokeColor=none;fillColor=none;align=center;verticalAlign=middle;whiteSpace=wrap;rounded=0;" parent="1" vertex="1">
                    <mxGeometry x="575" y="540" width="100" height="30" as="geometry"/>
                </mxCell>
                <mxCell id="3Syt7cLB1HclfKOrYkWT-265" value="" style="endArrow=classic;html=1;rounded=0;exitX=0.5;exitY=1.167;exitDx=0;exitDy=0;exitPerimeter=0;entryX=0.503;entryY=-0.127;entryDx=0;entryDy=0;entryPerimeter=0;shape=flexArrow;" parent="1" source="3Syt7cLB1HclfKOrYkWT-253" target="3Syt7cLB1HclfKOrYkWT-266" edge="1">
                    <mxGeometry width="50" height="50" relative="1" as="geometry">
                        <mxPoint x="940" y="500" as="sourcePoint"/>
                        <mxPoint x="940" y="560" as="targetPoint"/>
                    </mxGeometry>
                </mxCell>
                <mxCell id="3Syt7cLB1HclfKOrYkWT-266" value="" style="rounded=1;whiteSpace=wrap;html=1;" parent="1" vertex="1">
                    <mxGeometry x="880" y="570" width="120" height="60" as="geometry"/>
                </mxCell>
                <mxCell id="3Syt7cLB1HclfKOrYkWT-267" value="Clear input" style="text;html=1;strokeColor=none;fillColor=none;align=center;verticalAlign=middle;whiteSpace=wrap;rounded=0;" parent="1" vertex="1">
                    <mxGeometry x="910" y="585" width="60" height="30" as="geometry"/>
                </mxCell>
                <mxCell id="3Syt7cLB1HclfKOrYkWT-268" value="" style="curved=1;endArrow=classic;html=1;rounded=0;exitX=1.088;exitY=0.464;exitDx=0;exitDy=0;exitPerimeter=0;entryX=1.018;entryY=-0.11;entryDx=0;entryDy=0;entryPerimeter=0;" parent="1" source="3Syt7cLB1HclfKOrYkWT-239" target="3Syt7cLB1HclfKOrYkWT-6" edge="1">
                    <mxGeometry width="50" height="50" relative="1" as="geometry">
                        <mxPoint x="1010" y="300" as="sourcePoint"/>
                        <mxPoint x="350" y="30" as="targetPoint"/>
                        <Array as="points">
                            <mxPoint x="1060" y="300"/>
                            <mxPoint x="1090" y="140"/>
                            <mxPoint x="1020" y="60"/>
                            <mxPoint x="930" y="30"/>
                            <mxPoint x="840" y="10"/>
                            <mxPoint x="650" y="10"/>
                            <mxPoint x="470" y="60"/>
                        </Array>
                    </mxGeometry>
                </mxCell>
                <mxCell id="3Syt7cLB1HclfKOrYkWT-269" value="Search" style="text;html=1;strokeColor=none;fillColor=none;align=center;verticalAlign=middle;whiteSpace=wrap;rounded=0;" parent="1" vertex="1">
                    <mxGeometry x="720" y="20" width="60" height="30" as="geometry"/>
                </mxCell>
                <mxCell id="3Syt7cLB1HclfKOrYkWT-271" value="" style="endArrow=classic;html=1;rounded=0;exitX=0.5;exitY=1.133;exitDx=0;exitDy=0;exitPerimeter=0;" parent="1" source="3Syt7cLB1HclfKOrYkWT-258" edge="1">
                    <mxGeometry width="50" height="50" relative="1" as="geometry">
                        <mxPoint x="550" y="520" as="sourcePoint"/>
                        <mxPoint x="750" y="490" as="targetPoint"/>
                        <Array as="points">
                            <mxPoint x="510" y="530"/>
                            <mxPoint x="750" y="530"/>
                        </Array>
                    </mxGeometry>
                </mxCell>
                <mxCell id="5" value="" style="endArrow=classic;html=1;entryX=1.05;entryY=1.183;entryDx=0;entryDy=0;entryPerimeter=0;" parent="1" target="3Syt7cLB1HclfKOrYkWT-6" edge="1">
                    <mxGeometry width="50" height="50" relative="1" as="geometry">
                        <mxPoint x="440" y="273" as="sourcePoint"/>
                        <mxPoint x="459" y="253" as="targetPoint"/>
                        <Array as="points"/>
                    </mxGeometry>
                </mxCell>
                <mxCell id="6" value="Search" style="text;html=1;strokeColor=none;fillColor=none;align=center;verticalAlign=middle;whiteSpace=wrap;rounded=0;" parent="1" vertex="1">
                    <mxGeometry x="380" y="220" width="60" height="30" as="geometry"/>
                </mxCell>
                <mxCell id="7" value="" style="endArrow=classic;html=1;entryX=-0.1;entryY=0.8;entryDx=0;entryDy=0;entryPerimeter=0;exitX=0.538;exitY=1.133;exitDx=0;exitDy=0;exitPerimeter=0;" parent="1" source="3Syt7cLB1HclfKOrYkWT-6" target="3Syt7cLB1HclfKOrYkWT-18" edge="1">
                    <mxGeometry width="50" height="50" relative="1" as="geometry">
                        <mxPoint x="320" y="230" as="sourcePoint"/>
                        <mxPoint x="440" y="300" as="targetPoint"/>
                        <Array as="points">
                            <mxPoint x="299" y="320"/>
                        </Array>
                    </mxGeometry>
                </mxCell>
            </root>
        </mxGraphModel>
    </diagram>
</mxfile>